# xmcd
# 
# Track frame offsets:
#     150
#     15168
#     33309
#     51402
#     74545
#     95265
#     119846
#     135819
#     157882
#     173650
#     192782
# 
# Disc length: 2808
# 
# Revision: 1
# Processed by: cddbd v1.5.2PL0 Copyright (c) Steve Scherf et al.
# Submitted via: fre:ac v1.0.31
# 
DISCID=850af60b
DTITLE=Samantha Fish - Belle Of The West
DYEAR=2017
DGENRE=Blues
TTITLE0=American Dream
TTITLE1=Blood In The Water
TTITLE2=Need You More
TTITLE3=Cowtown
TTITLE4=Daughters
TTITLE5=Don't Say You Love Me
TTITLE6=Belle Of The West
TTITLE7=Poor Black Mattie
TTITLE8=No Angels
TTITLE9=Nearing Home
TTITLE10=Gone For Good
EXTD=
EXTT0=
EXTT1=
EXTT2=
EXTT3=
EXTT4=
EXTT5=
EXTT6=
EXTT7=
EXTT8=
EXTT9=
EXTT10=
PLAYORDER=
